<svg width="15" height="14" viewBox="0 0 15 14" fill="none" xmlns="http://www.w3.org/2000/svg">
<path d="M11.5208 10.0782L14.3762 12.9328L13.4328 13.8762L10.5782 11.0208C9.51599 11.8723 8.19483 12.3354 6.8335 12.3335C3.5215 12.3335 0.833496 9.6455 0.833496 6.3335C0.833496 3.0215 3.5215 0.333496 6.8335 0.333496C10.1455 0.333496 12.8335 3.0215 12.8335 6.3335C12.8354 7.69483 12.3723 9.01599 11.5208 10.0782ZM10.1835 9.5835C11.0296 8.71342 11.5021 7.54712 11.5002 6.3335C11.5002 3.7555 9.4115 1.66683 6.8335 1.66683C4.2555 1.66683 2.16683 3.7555 2.16683 6.3335C2.16683 8.9115 4.2555 11.0002 6.8335 11.0002C8.04712 11.0021 9.21342 10.5296 10.0835 9.6835L10.1835 9.5835Z" fill="white"/>
</svg>
