<svg width="52" height="58" viewBox="0 0 52 58" fill="none" xmlns="http://www.w3.org/2000/svg">
<path d="M13.1488 5.57725C13.1488 4.98867 13.4932 4.45453 14.0293 4.2116L23.0251 0.135386C24.0176 -0.314349 25.1432 0.411367 25.1432 1.50103V15.1113C25.1432 15.775 24.7068 16.3597 24.0706 16.5486L15.0748 19.2192C14.1137 19.5045 13.1488 18.7844 13.1488 17.7819V5.57725Z" fill="#254E7A"/>
<path d="M13.1488 24.3003C13.1488 23.6286 13.5956 23.0389 14.2422 22.857L23.238 20.3269C24.1944 20.0579 25.1432 20.7767 25.1432 21.7702V35.7298C25.1432 36.4772 24.5928 37.1104 23.8527 37.2145L14.8569 38.4795C13.9547 38.6064 13.1488 37.9059 13.1488 36.9949V24.3003Z" fill="#254E7A"/>
<path d="M13.1488 43.4589C13.1488 42.6851 13.7377 42.0384 14.5082 41.9661L23.504 41.1228C24.3834 41.0403 25.1432 41.7322 25.1432 42.6155V56.1495C25.1432 56.9776 24.4719 57.6488 23.6439 57.6488H14.6481C13.8201 57.6488 13.1488 56.9776 13.1488 56.1495V43.4589Z" fill="#254E7A"/>
<path d="M0.404297 44.6141C0.404297 43.8275 1.01218 43.1746 1.79678 43.1186L9.29327 42.5831C10.1612 42.5211 10.8994 43.2085 10.8994 44.0786V56.1495C10.8994 56.9775 10.2281 57.6488 9.40009 57.6488H1.9036C1.07556 57.6488 0.404297 56.9775 0.404297 56.1495V44.6141Z" fill="#254E7A"/>
<path d="M0.404541 26.8131C0.404541 26.1062 0.89841 25.4952 1.58969 25.3471L9.08619 23.7407C10.0195 23.5407 10.8996 24.2522 10.8996 25.2067V37.3964C10.8996 38.1525 10.3366 38.7903 9.5863 38.8841L2.08981 39.8212C1.19494 39.933 0.404541 39.2353 0.404541 38.3334V26.8131Z" fill="#254E7A"/>
<path d="M39.0112 5.6514C39.0112 5.06652 38.6711 4.53503 38.14 4.29L29.1442 0.139672C28.1508 -0.318669 27.0168 0.406985 27.0168 1.50107V15.4097C27.0168 16.0706 27.4497 16.6536 28.0823 16.8448L37.0781 19.564C38.0407 19.855 39.0112 19.1345 39.0112 18.1289V5.6514Z" fill="#85C1E5"/>
<path d="M39.0112 24.6269C39.0112 23.9538 38.5626 23.3632 37.9141 23.1826L28.9183 20.6776C27.9628 20.4115 27.0168 21.13 27.0168 22.1219V35.9143C27.0168 36.6624 27.5684 37.2961 28.3094 37.3993L37.3052 38.6518C38.2067 38.7773 39.0112 38.077 39.0112 37.1668V24.6269Z" fill="#85C1E5"/>
<path d="M39.0112 43.6174C39.0112 42.843 38.4214 42.196 37.6503 42.1245L28.6545 41.2906C27.7756 41.2091 27.0168 41.9008 27.0168 42.7835V56.1318C27.0168 56.9598 27.6881 57.6311 28.5161 57.6311H37.5119C38.34 57.6311 39.0112 56.9598 39.0112 56.1318V43.6174Z" fill="#85C1E5"/>
<path d="M51.7562 44.4171C51.7562 43.631 51.1491 42.9784 50.3651 42.9217L42.8686 42.3796C42.0002 42.3168 41.2611 43.0044 41.2611 43.875V56.1319C41.2611 56.9599 41.9324 57.6312 42.7604 57.6312H50.2569C51.085 57.6312 51.7562 56.9599 51.7562 56.1319V44.4171Z" fill="#85C1E5"/>
<path d="M51.7554 26.9601C51.7554 26.2518 51.2597 25.6402 50.5668 25.4934L43.0703 23.905C42.1379 23.7075 41.2603 24.4186 41.2603 25.3717V37.3912C41.2603 38.1482 41.8245 38.7864 42.5757 38.8792L50.0722 39.8057C50.9664 39.9163 51.7554 39.2188 51.7554 38.3178V26.9601Z" fill="#85C1E5"/>
</svg>
